<svg width="129" height="87" viewBox="0 0 129 87" fill="none" xmlns="http://www.w3.org/2000/svg">
<g filter="url(#filter0_d_134_662)">
<path d="M4 8C4 5.19974 4 3.79961 4.54497 2.73005C5.02433 1.78924 5.78924 1.02433 6.73005 0.544967C7.79961 0 9.19974 0 12 0H117C119.8 0 121.2 0 122.27 0.544967C123.211 1.02433 123.976 1.78924 124.455 2.73005C125 3.79961 125 5.19974 125 8V71C125 73.8003 125 75.2004 124.455 76.27C123.976 77.2108 123.211 77.9757 122.27 78.455C121.2 79 119.8 79 117 79H12C9.19974 79 7.79961 79 6.73005 78.455C5.78924 77.9757 5.02433 77.2108 4.54497 76.27C4 75.2004 4 73.8003 4 71V8Z" fill="#FFE6E6"/>
<path d="M4.5 8C4.5 6.59162 4.50039 5.5654 4.56646 4.75673C4.63205 3.95389 4.75989 3.40959 4.99047 2.95704C5.4219 2.11031 6.11031 1.4219 6.95704 0.990471C7.40959 0.759887 7.95389 0.632055 8.75673 0.56646C9.5654 0.500389 10.5916 0.5 12 0.5H117C118.408 0.5 119.435 0.500389 120.243 0.56646C121.046 0.632055 121.59 0.759887 122.043 0.990471C122.89 1.4219 123.578 2.11031 124.01 2.95704C124.24 3.40959 124.368 3.95389 124.434 4.75673C124.5 5.5654 124.5 6.59162 124.5 8V71C124.5 72.4084 124.5 73.4346 124.434 74.2433C124.368 75.0461 124.24 75.5904 124.01 76.043C123.578 76.8897 122.89 77.5781 122.043 78.0095C121.59 78.2401 121.046 78.3679 120.243 78.4335C119.435 78.4996 118.408 78.5 117 78.5H12C10.5916 78.5 9.5654 78.4996 8.75672 78.4335C7.95389 78.3679 7.40959 78.2401 6.95704 78.0095C6.11031 77.5781 5.4219 76.8897 4.99047 76.043C4.75989 75.5904 4.63205 75.0461 4.56646 74.2433C4.50039 73.4346 4.5 72.4084 4.5 71V8Z" stroke="black"/>
</g>
<defs>
<filter id="filter0_d_134_662" x="0" y="0" width="129" height="87" filterUnits="userSpaceOnUse" color-interpolation-filters="sRGB">
<feFlood flood-opacity="0" result="BackgroundImageFix"/>
<feColorMatrix in="SourceAlpha" type="matrix" values="0 0 0 0 0 0 0 0 0 0 0 0 0 0 0 0 0 0 127 0" result="hardAlpha"/>
<feOffset dy="4"/>
<feGaussianBlur stdDeviation="2"/>
<feComposite in2="hardAlpha" operator="out"/>
<feColorMatrix type="matrix" values="0 0 0 0 0 0 0 0 0 0 0 0 0 0 0 0 0 0 0.25 0"/>
<feBlend mode="normal" in2="BackgroundImageFix" result="effect1_dropShadow_134_662"/>
<feBlend mode="normal" in="SourceGraphic" in2="effect1_dropShadow_134_662" result="shape"/>
</filter>
</defs>
</svg>
