<svg width="36" height="36" viewBox="0 0 36 36" fill="none" xmlns="http://www.w3.org/2000/svg">
<circle cx="18" cy="18" r="16.5" fill="#FFE6E6" stroke="black" stroke-width="3"/>
<path d="M17.948 1C8.58807 1 1 8.58787 1 17.9478C1 27.3081 8.58807 34.8954 17.948 34.8954C27.3089 34.8954 34.8962 27.3081 34.8962 17.9478C34.8962 8.58848 27.3089 1.00081 17.9478 1.00081L17.948 1ZM25.7202 25.4436C25.4167 25.9414 24.765 26.0993 24.2671 25.7937C20.2879 23.3631 15.2786 22.8126 9.37918 24.1605C8.81069 24.29 8.24402 23.9338 8.1145 23.3651C7.98437 22.7964 8.33914 22.2298 8.90905 22.1002C15.365 20.6247 20.9027 21.2604 25.3701 23.9905C25.868 24.2961 26.0258 24.9457 25.7202 25.4436ZM27.7946 20.8283C27.4121 21.4506 26.5986 21.6469 25.9772 21.2644C21.4217 18.4637 14.4774 17.6527 9.08896 19.2884C8.39014 19.4994 7.65206 19.1056 7.43996 18.408C7.22949 17.7092 7.62352 16.9725 8.32113 16.76C14.4761 14.8924 22.128 15.7971 27.3595 19.0119C27.9808 19.3944 28.1771 20.2078 27.7946 20.8283ZM27.9727 16.0229C22.5105 12.7786 13.4984 12.4803 8.28329 14.0631C7.44583 14.3171 6.56021 13.8443 6.30643 13.0069C6.05264 12.169 6.525 11.284 7.36306 11.0294C13.3497 9.21201 23.3018 9.56314 29.5906 13.2965C30.3454 13.7435 30.5923 14.7164 30.1451 15.4686C29.6998 16.2219 28.7244 16.4702 27.9735 16.0229H27.9727Z" fill="#1ED760"/>
</svg>
