<?xml version="1.0" encoding="UTF-8" standalone="no"?>
<svg
   xmlns:dc="http://purl.org/dc/elements/1.1/"
   xmlns:cc="http://creativecommons.org/ns#"
   xmlns:rdf="http://www.w3.org/1999/02/22-rdf-syntax-ns#"
   xmlns:svg="http://www.w3.org/2000/svg"
   xmlns="http://www.w3.org/2000/svg"
   xmlns:sodipodi="http://sodipodi.sourceforge.net/DTD/sodipodi-0.dtd"
   xmlns:inkscape="http://www.inkscape.org/namespaces/inkscape"
   width="210mm"
   height="297mm"
   viewBox="0 0 210 297"
   version="1.1"
   id="svg971"
   inkscape:version="1.0 (4035a4fb49, 2020-05-01)"
   sodipodi:docname="green_hat.svg">
  <defs
     id="defs965" />
  <sodipodi:namedview
     id="base"
     pagecolor="#ffffff"
     bordercolor="#666666"
     borderopacity="1.0"
     inkscape:pageopacity="0.0"
     inkscape:pageshadow="2"
     inkscape:zoom="0.9899495"
     inkscape:cx="310.96579"
     inkscape:cy="441.42925"
     inkscape:document-units="mm"
     inkscape:current-layer="layer1"
     inkscape:document-rotation="0"
     showgrid="false"
     inkscape:window-width="1920"
     inkscape:window-height="1017"
     inkscape:window-x="-8"
     inkscape:window-y="-8"
     inkscape:window-maximized="1" />
  <metadata
     id="metadata968">
    <rdf:RDF>
      <cc:Work
         rdf:about="">
        <dc:format>image/svg+xml</dc:format>
        <dc:type
           rdf:resource="http://purl.org/dc/dcmitype/StillImage" />
        <dc:title></dc:title>
      </cc:Work>
    </rdf:RDF>
  </metadata>
  <g
     inkscape:label="Layer 1"
     inkscape:groupmode="layer"
     id="layer1">
    <path
       sodipodi:nodetypes="csssssssassssc"
       id="path891"
       d="m 50.546548,111.4694 c 0,0 -14.10376,1.60012 -20.325771,4.70701 -4.166491,2.08045 -8.308295,4.98876 -10.697727,8.9861 -0.897063,1.50071 -1.539757,3.45087 -1.069787,5.13494 0.759601,2.72183 3.477501,4.5619 5.776791,6.20471 4.130278,2.95094 8.941287,5.15197 13.90709,6.20465 37.744491,8.0016 77.560876,5.28914 115.749716,-0.21414 4.7803,-0.68884 9.63983,-1.80318 13.90708,-4.06513 3.75974,-1.99294 8.30626,-4.16182 9.84194,-8.13028 0.728,-1.88124 0.15532,-4.24523 -0.85582,-5.99077 -1.85907,-3.20971 -5.57457,-4.96666 -8.77215,-6.84657 -3.47132,-2.04084 -7.21026,-3.76633 -11.12568,-4.70702 -3.89323,-0.93527 -7.98035,-0.70402 -11.98149,-0.85581 -31.4291,-1.19239 -94.354192,-0.42779 -94.354192,-0.42779 z"
       style="fill:#004100;fill-opacity:1;stroke:#000000;stroke-width:0.847217px;stroke-linecap:butt;stroke-linejoin:miter;stroke-opacity:1" />
    <path
       sodipodi:nodetypes="csccsscccscc"
       id="path895"
       d="m 51.07169,112.18478 c 0,0 5.781655,-23.224888 10.741535,-34.040025 4.15365,-9.057165 8.9076,-18.158182 15.73406,-25.416596 14.68651,-14.503171 31.385555,-22.445848 49.622825,-21.483061 3.67571,0.197552 7.42001,0.595047 10.89283,1.815482 6.32634,2.223268 12.5624,5.351132 17.54953,9.833814 4.27713,3.844466 7.6778,8.802005 9.9851,14.069872 0.67296,4.647846 1.97328,13.866272 -1.07154,22.863391 -5.1985,-9.429051 -26.38322,-16.888822 -29.98392,-11.272336 -1.60264,2.316923 -1.20769,4.794473 -0.86657,5.807161 4.12861,12.257074 11.95186,36.914578 11.95186,36.914578 z"
       style="fill:#008000;fill-opacity:1;stroke:#000000;stroke-width:0.847217px;stroke-linecap:butt;stroke-linejoin:miter;stroke-opacity:1" />
    <path
       sodipodi:nodetypes="ssscsscssssss"
       id="path893"
       d="m 50.11862,111.89728 c -5.464591,0.61353 -11.109905,0.85567 -16.260587,2.78144 -3.986923,1.49062 -7.548894,4.02319 -10.911694,6.63259 -1.007795,0.78201 -2.737626,2.67403 -2.737626,2.67403 0,0 21.87859,-1.17966 32.82973,-1.3616 30.658072,-0.50939 61.323507,0.40388 91.983797,0.75645 10.23767,0.11756 30.71169,0.45364 30.71169,0.45364 0,0 -3.26177,-3.75793 -5.29512,-5.14382 -3.43146,-2.33888 -7.36413,-3.96729 -11.3467,-5.14383 -3.91234,-1.1558 -8.04538,-1.39467 -12.10312,-1.81548 -12.15919,-1.26102 -24.39268,-1.7649 -36.61197,-2.11805 -6.04904,-0.17463 -12.105335,-0.1639 -18.154685,0 -14.05006,0.38096 -28.13627,0.71621 -42.103715,2.28444 z"
       style="fill:#008000;fill-opacity:1;stroke:#000000;stroke-width:0.847217px;stroke-linecap:butt;stroke-linejoin:miter;stroke-opacity:1" />
  </g>
</svg>
