<?xml version="1.0" encoding="UTF-8" standalone="no"?>
<svg
   xmlns:dc="http://purl.org/dc/elements/1.1/"
   xmlns:cc="http://creativecommons.org/ns#"
   xmlns:rdf="http://www.w3.org/1999/02/22-rdf-syntax-ns#"
   xmlns:svg="http://www.w3.org/2000/svg"
   xmlns="http://www.w3.org/2000/svg"
   xmlns:sodipodi="http://sodipodi.sourceforge.net/DTD/sodipodi-0.dtd"
   xmlns:inkscape="http://www.inkscape.org/namespaces/inkscape"
   width="210mm"
   height="297mm"
   viewBox="0 0 210 297"
   version="1.1"
   id="svg1635"
   inkscape:version="1.0 (4035a4fb49, 2020-05-01)"
   sodipodi:docname="purple_cloak.svg">
  <defs
     id="defs1629" />
  <sodipodi:namedview
     id="base"
     pagecolor="#ffffff"
     bordercolor="#666666"
     borderopacity="1.0"
     inkscape:pageopacity="0.0"
     inkscape:pageshadow="2"
     inkscape:zoom="0.98994949"
     inkscape:cx="136.24522"
     inkscape:cy="452.72797"
     inkscape:document-units="mm"
     inkscape:current-layer="layer1"
     inkscape:document-rotation="0"
     showgrid="false"
     inkscape:window-width="1920"
     inkscape:window-height="1017"
     inkscape:window-x="-8"
     inkscape:window-y="-8"
     inkscape:window-maximized="1" />
  <metadata
     id="metadata1632">
    <rdf:RDF>
      <cc:Work
         rdf:about="">
        <dc:format>image/svg+xml</dc:format>
        <dc:type
           rdf:resource="http://purl.org/dc/dcmitype/StillImage" />
        <dc:title></dc:title>
      </cc:Work>
    </rdf:RDF>
  </metadata>
  <g
     inkscape:label="Layer 1"
     inkscape:groupmode="layer"
     id="layer1">
    <path
       style="fill:#2e236c;fill-opacity:1;stroke:#000000;stroke-width:0.847217px;stroke-linecap:butt;stroke-linejoin:miter;stroke-opacity:1"
       d="m 54.148898,104.7208 c 0,0 -2.038771,32.36453 -2.567472,48.56782 -0.37447,11.47701 -0.427879,34.44679 -0.427879,34.44679 l 39.367751,-0.85587 27.386242,-1.02517 39.15378,1.02517 c 0,0 0.42437,-27.24061 0.22062,-40.85894 -0.21228,-14.20177 -1.50436,-42.58355 -1.50436,-42.58355 z"
       id="path861"
       sodipodi:nodetypes="csccccscc" />
    <g
       id="g869"
       style="fill:#433d8b;fill-opacity:1"
       transform="matrix(3.2020883,0,0,3.2020883,741.53516,-41.624514)">
      <path
         id="path863"
         d="m -213.41471,48.375784 -5.87993,-0.133636 -0.20045,15.635269 5.61265,-0.267272 z"
         style="fill:#433d8b;fill-opacity:1;stroke:#000000;stroke-width:0.264583px;stroke-linecap:butt;stroke-linejoin:miter;stroke-opacity:1" />
      <path
         sodipodi:nodetypes="ccsccc"
         id="path865"
         d="m -219.16101,48.175331 -4.47676,-0.133633 c 0,0 -0.18413,5.078231 -0.13363,7.617179 0.0541,2.721171 0.46772,8.15172 0.46772,8.15172 l 3.80859,0.06682 z"
         style="fill:#2e236c;fill-opacity:1;stroke:#000000;stroke-width:0.264583px;stroke-linecap:butt;stroke-linejoin:miter;stroke-opacity:1" />
    </g>
    <g
       id="g875"
       transform="matrix(-3.2020883,0,0,3.2020883,-533.89141,-41.624514)"
       style="fill:#433d8b;fill-opacity:1">
      <path
         style="fill:#433d8b;fill-opacity:1;stroke:#000000;stroke-width:0.264583px;stroke-linecap:butt;stroke-linejoin:miter;stroke-opacity:1"
         d="m -213.41471,48.375784 -5.87993,-0.133636 -0.20045,15.635269 5.61265,-0.267272 z"
         id="path871" />
      <path
         style="fill:#2e236c;fill-opacity:1;stroke:#000000;stroke-width:0.264583px;stroke-linecap:butt;stroke-linejoin:miter;stroke-opacity:1"
         d="m -219.16101,48.175331 -4.47676,-0.133633 c 0,0 -0.18413,5.078231 -0.13363,7.617179 0.0541,2.721171 0.46772,8.15172 0.46772,8.15172 l 3.80859,0.06682 z"
         id="path873"
         sodipodi:nodetypes="ccsccc" />
    </g>
    <path
       style="fill:#433d8b;fill-opacity:1;stroke:#000000;stroke-width:0.847217px;stroke-linecap:butt;stroke-linejoin:miter;stroke-opacity:1"
       d="m 78.646698,104.67207 c 0,0 0.78387,29.353 0.453879,44.02514 -0.2872,12.775 -2.11805,38.27613 -2.11805,38.27613 l -25.71918,0.45413 2.420659,-82.60385 z"
       id="path877"
       sodipodi:nodetypes="cscccc" />
    <path
       sodipodi:nodetypes="cscccc"
       id="path879"
       d="m 130.2144,104.03663 c 0,0 -0.78387,29.35306 -0.45388,44.02515 0.28721,12.775 2.11805,38.27613 2.11805,38.27613 l 25.71918,0.45412 -2.42065,-82.60384 z"
       style="fill:#433d8b;fill-opacity:1;stroke:#000000;stroke-width:0.847217px;stroke-linecap:butt;stroke-linejoin:miter;stroke-opacity:1" />
  </g>
</svg>
