<?xml version="1.0" encoding="UTF-8" standalone="no"?>
<svg
   xmlns:dc="http://purl.org/dc/elements/1.1/"
   xmlns:cc="http://creativecommons.org/ns#"
   xmlns:rdf="http://www.w3.org/1999/02/22-rdf-syntax-ns#"
   xmlns:svg="http://www.w3.org/2000/svg"
   xmlns="http://www.w3.org/2000/svg"
   xmlns:xlink="http://www.w3.org/1999/xlink"
   xmlns:sodipodi="http://sodipodi.sourceforge.net/DTD/sodipodi-0.dtd"
   xmlns:inkscape="http://www.inkscape.org/namespaces/inkscape"
   sodipodi:docname="fireball_spell.svg"
   inkscape:version="1.0 (4035a4fb49, 2020-05-01)"
   id="svg2146"
   version="1.1"
   viewBox="0 0 210 297"
   height="297mm"
   width="210mm">
  <defs
     id="defs2140">
    <radialGradient
       inkscape:collect="always"
       xlink:href="#linearGradient5724"
       id="radialGradient5801"
       gradientUnits="userSpaceOnUse"
       gradientTransform="translate(-3.0371094e-6,-4.0908203e-5)"
       cx="243.82541"
       cy="679.82123"
       fx="243.82541"
       fy="679.82123"
       r="52.079327" />
    <linearGradient
       inkscape:collect="always"
       id="linearGradient5724">
      <stop
         style="stop-color:#f57900;stop-opacity:1"
         offset="0"
         id="stop5726" />
      <stop
         style="stop-color:#a40000;stop-opacity:1"
         offset="1"
         id="stop5728" />
    </linearGradient>
    <radialGradient
       inkscape:collect="always"
       xlink:href="#linearGradient5740"
       id="radialGradient5803"
       gradientUnits="userSpaceOnUse"
       gradientTransform="matrix(0.40751515,0,0,0.40751515,146.07,402.33733)"
       cx="243.82541"
       cy="679.82123"
       fx="243.82541"
       fy="679.82123"
       r="52.079327" />
    <linearGradient
       id="linearGradient5740"
       inkscape:collect="always">
      <stop
         id="stop5742"
         offset="0"
         style="stop-color:#edd400;stop-opacity:1" />
      <stop
         id="stop5744"
         offset="1"
         style="stop-color:#ef2929;stop-opacity:1" />
    </linearGradient>
  </defs>
  <sodipodi:namedview
     inkscape:window-maximized="1"
     inkscape:window-y="-8"
     inkscape:window-x="-8"
     inkscape:window-height="1017"
     inkscape:window-width="1920"
     showgrid="false"
     inkscape:document-rotation="0"
     inkscape:current-layer="layer1"
     inkscape:document-units="mm"
     inkscape:cy="560"
     inkscape:cx="400"
     inkscape:zoom="0.35"
     inkscape:pageshadow="2"
     inkscape:pageopacity="0.0"
     borderopacity="1.0"
     bordercolor="#666666"
     pagecolor="#ffffff"
     id="base" />
  <metadata
     id="metadata2143">
    <rdf:RDF>
      <cc:Work
         rdf:about="">
        <dc:format>image/svg+xml</dc:format>
        <dc:type
           rdf:resource="http://purl.org/dc/dcmitype/StillImage" />
        <dc:title></dc:title>
      </cc:Work>
    </rdf:RDF>
  </metadata>
  <g
     id="layer1"
     inkscape:groupmode="layer"
     inkscape:label="Layer 1">
    <g
       inkscape:export-filename="E:\Σχολή\7ο εξάμηνο\ΑΑΥ\fireball_spell.png"
       id="g4233"
       transform="matrix(1.7879719,0,0,1.7879719,-729.57615,-740.95979)"
       inkscape:export-xdpi="90"
       inkscape:export-ydpi="90">
      <g
         transform="translate(72.142853,32.142857)"
         style="stroke:#000000;stroke-width:5;stroke-miterlimit:4;stroke-dasharray:none;stroke-opacity:1"
         id="g5670">
        <rect
           style="opacity:1;fill:#c17d11;fill-opacity:1;fill-rule:nonzero;stroke:#000000;stroke-width:5;stroke-linecap:round;stroke-linejoin:bevel;stroke-miterlimit:4;stroke-dasharray:none;stroke-dashoffset:0;stroke-opacity:1"
           id="rect5672"
           width="65.535713"
           height="9.684289"
           x="358.57141"
           y="501.27005"
           ry="4.6751618" />
        <path
           sodipodi:nodetypes="scccscs"
           inkscape:connector-curvature="0"
           id="path5674"
           d="m 420.62504,507.07937 c 1.06793,-2.8478 10.97017,-6.5964 7.57615,-30.8096 -2.55214,-18.20711 -21.23088,-35.912 -1.76777,-55.05332 l -58.08377,0.12627 c -19.46311,19.01505 -0.78437,36.71994 1.76777,54.92705 3.39402,24.2132 -6.50822,27.9618 -7.70242,30.8096 z"
           style="opacity:1;fill:#e9b96e;fill-rule:evenodd;stroke:#000000;stroke-width:5;stroke-linecap:butt;stroke-linejoin:round;stroke-miterlimit:4;stroke-dasharray:none;stroke-opacity:1" />
        <rect
           ry="4.6751618"
           y="418.05579"
           x="364.64285"
           height="9.684289"
           width="65.535713"
           id="rect5676"
           style="opacity:1;fill:#c17d11;fill-opacity:1;fill-rule:nonzero;stroke:#000000;stroke-width:5;stroke-linecap:round;stroke-linejoin:bevel;stroke-miterlimit:4;stroke-dasharray:none;stroke-dashoffset:0;stroke-opacity:1" />
      </g>
      <rect
         style="opacity:1;fill:#c17d11;fill-opacity:1;fill-rule:nonzero;stroke:#000000;stroke-width:1;stroke-linecap:round;stroke-linejoin:bevel;stroke-miterlimit:4;stroke-dasharray:none;stroke-dashoffset:0;stroke-opacity:1"
         id="rect5680"
         width="65.535713"
         height="9.684289"
         x="430.71426"
         y="533.4129"
         ry="4.6751618" />
      <path
         sodipodi:nodetypes="scccscs"
         inkscape:connector-curvature="0"
         id="path5682"
         d="m 492.76789,539.22223 c 1.06793,-2.8478 10.97017,-6.5964 7.57615,-30.8096 -2.55214,-18.20711 -21.23088,-35.912 -1.76777,-55.05332 l -58.08377,0.12627 c -19.46311,19.01505 -0.78437,36.71994 1.76777,54.92705 3.39402,24.2132 -6.50822,27.9618 -7.70242,30.8096 z"
         style="opacity:1;fill:#e9b96e;fill-rule:evenodd;stroke:none;stroke-width:5;stroke-linecap:butt;stroke-linejoin:round;stroke-miterlimit:4;stroke-dasharray:none;stroke-opacity:1" />
      <rect
         ry="4.6751618"
         y="450.19864"
         x="436.78571"
         height="9.684289"
         width="65.535713"
         id="rect5684"
         style="opacity:1;fill:#c17d11;fill-opacity:1;fill-rule:nonzero;stroke:#000000;stroke-width:1;stroke-linecap:round;stroke-linejoin:bevel;stroke-miterlimit:4;stroke-dasharray:none;stroke-dashoffset:0;stroke-opacity:1" />
      <g
         transform="matrix(0.4058786,0,0,0.4058786,369.68858,223.87096)"
         id="g5765">
        <circle
           style="color:#000000;clip-rule:nonzero;display:inline;overflow:visible;visibility:visible;opacity:1;isolation:auto;mix-blend-mode:normal;color-interpolation:sRGB;color-interpolation-filters:linearRGB;solid-color:#000000;solid-opacity:1;fill:url(#radialGradient5801);fill-opacity:1;fill-rule:nonzero;stroke:#000000;stroke-width:5;stroke-linecap:butt;stroke-linejoin:miter;stroke-miterlimit:4;stroke-dasharray:none;stroke-dashoffset:0;stroke-opacity:1;color-rendering:auto;image-rendering:auto;shape-rendering:auto;text-rendering:auto;enable-background:accumulate"
           id="circle5767"
           cx="243.82541"
           cy="679.82123"
           r="49.579327" />
        <path
           style="fill:#f57900;fill-rule:evenodd;stroke:none;stroke-width:1px;stroke-linecap:butt;stroke-linejoin:miter;stroke-opacity:1"
           d="m 250.028,639.66569 c -12.64317,-1.2049 -22.82395,1.09968 -30.89286,8.03571 -5.32545,4.57776 -14.01436,17.40846 -13.92856,26.78572 3.39453,-6.15154 10.02977,-16.89595 17.32143,-22.14285 8.19326,-5.89567 16.9358,-9.85868 27.49999,-12.67858 z"
           id="path5769"
           inkscape:connector-curvature="0"
           sodipodi:nodetypes="cscsc" />
        <path
           sodipodi:nodetypes="cscsc"
           inkscape:connector-curvature="0"
           id="path5771"
           d="m 230.96484,720.07632 c 15.46099,1.47345 27.91079,-1.34476 37.77804,-9.82664 6.51235,-5.59802 17.13778,-21.28834 17.03286,-32.75554 -4.15108,7.52256 -12.26514,20.66161 -21.18191,27.07789 -10.01932,7.20966 -20.71033,12.05592 -33.62899,15.50429 z"
           style="fill:#f57900;fill-rule:evenodd;stroke:none;stroke-width:1px;stroke-linecap:butt;stroke-linejoin:miter;stroke-opacity:1" />
        <path
           style="fill:#ef2929;fill-rule:evenodd;stroke:none;stroke-width:1px;stroke-linecap:butt;stroke-linejoin:miter;stroke-opacity:1"
           d="m 204.42962,679.99472 c -0.71083,3.33094 1.45269,10.35642 2.65165,15.15229 1.49655,5.98618 7.23841,16.91222 14.01587,18.81409 4.09591,1.14938 9.03632,2.76848 11.49048,2.39911 -1.99155,-0.77203 -4.46685,-2.38291 -6.0329,-3.92966 -1.87929,-1.85612 -3.59257,-3.17144 -5.07877,-5.03544 -6.70589,-8.41056 -15.94168,-25.15385 -17.04633,-27.40039 z"
           id="path5773"
           inkscape:connector-curvature="0"
           sodipodi:nodetypes="csscsac" />
        <path
           sodipodi:nodetypes="cscsc"
           inkscape:connector-curvature="0"
           id="path5775"
           d="m 213.1562,677.08605 c -2.00565,7.37264 -1.67916,13.64386 1.60886,19.13605 2.17009,3.62483 8.88954,10.08665 14.45776,10.99352 -3.30033,-2.64079 -8.99265,-7.67197 -11.35862,-12.53084 -2.65853,-5.45965 -4.11515,-11.04757 -4.708,-17.59873 z"
           style="fill:#f57900;fill-rule:evenodd;stroke:none;stroke-width:1px;stroke-linecap:butt;stroke-linejoin:miter;stroke-opacity:1" />
        <path
           sodipodi:nodetypes="csscsac"
           inkscape:connector-curvature="0"
           id="path5777"
           d="m 284.55292,672.43238 c 0.3383,-3.3891 -2.58851,-10.13239 -4.31022,-14.76635 -2.14905,-5.78408 -9.06341,-16.00851 -16.00956,-17.1496 -4.19786,-0.6896 -9.28696,-1.75271 -11.68525,-1.11433 2.06468,0.54716 4.70287,1.87457 6.43029,3.23874 2.07293,1.63703 3.9211,2.75492 5.60423,4.44322 7.59444,7.61781 18.62431,23.23765 19.97051,25.34832 z"
           style="fill:#ef2929;fill-rule:evenodd;stroke:none;stroke-width:1px;stroke-linecap:butt;stroke-linejoin:miter;stroke-opacity:1" />
        <path
           style="fill:#fc8d4f;fill-opacity:1;fill-rule:evenodd;stroke:none;stroke-width:1px;stroke-linecap:butt;stroke-linejoin:miter;stroke-opacity:1"
           d="m 244.10957,647.61634 c -8.04751,-0.76693 -14.52768,0.69995 -19.66363,5.11481 -3.3897,2.9138 -8.92028,11.08067 -8.86567,17.04939 2.16065,-3.91552 6.38405,-10.75445 11.02527,-14.09416 5.2151,-3.75265 10.77982,-6.27514 17.50403,-8.07004 z"
           id="path5779"
           inkscape:connector-curvature="0"
           sodipodi:nodetypes="cscsc" />
        <path
           sodipodi:nodetypes="cscsc"
           inkscape:connector-curvature="0"
           id="path5781"
           d="m 275.76483,676.75153 c 0.76693,-8.04751 -0.69995,-14.52768 -5.11481,-19.66363 -2.9138,-3.3897 -11.08067,-8.92028 -17.04939,-8.86567 3.91552,2.16065 10.75445,6.38405 14.09416,11.02527 3.75265,5.2151 6.27514,10.77982 8.07004,17.50403 z"
           style="fill:#fcab4f;fill-opacity:1;fill-rule:evenodd;stroke:none;stroke-width:1px;stroke-linecap:butt;stroke-linejoin:miter;stroke-opacity:1" />
        <path
           sodipodi:nodetypes="cscsc"
           inkscape:connector-curvature="0"
           id="path5783"
           d="m 246.10552,706.59414 c 8.04751,0.76693 14.52768,-0.69995 19.66363,-5.11481 3.3897,-2.9138 8.92028,-11.08067 8.86567,-17.04939 -2.16065,3.91552 -6.38405,10.75445 -11.02527,14.09416 -5.2151,3.75265 -10.77982,6.27514 -17.50403,8.07004 z"
           style="fill:#fc4661;fill-opacity:1;fill-rule:evenodd;stroke:none;stroke-width:1px;stroke-linecap:butt;stroke-linejoin:miter;stroke-opacity:1" />
        <path
           style="fill:#f53200;fill-opacity:1;fill-rule:evenodd;stroke:none;stroke-width:1px;stroke-linecap:butt;stroke-linejoin:miter;stroke-opacity:1"
           d="m 220.13002,661.04981 c -4.98902,5.78689 -7.39891,11.58579 -6.80086,17.95898 0.39471,4.20629 3.67055,12.93412 8.30329,16.15363 -1.83882,-3.80588 -4.80492,-10.79999 -4.84418,-16.20414 -0.0441,-6.07237 1.05145,-11.74214 3.34175,-17.90847 z"
           id="path5785"
           inkscape:connector-curvature="0"
           sodipodi:nodetypes="cscsc" />
        <path
           sodipodi:nodetypes="cscsc"
           inkscape:connector-curvature="0"
           id="path5787"
           d="m 273.26581,689.82059 c 2.53682,-7.20715 2.66752,-13.4855 -0.21214,-19.20239 -1.90057,-3.77313 -8.132,-10.70677 -13.61947,-12.01641 3.09942,2.87394 8.41055,8.30599 10.41668,13.32414 2.25418,5.63865 3.30036,11.31773 3.41493,17.89466 z"
           style="fill:#f57900;fill-rule:evenodd;stroke:none;stroke-width:1px;stroke-linecap:butt;stroke-linejoin:miter;stroke-opacity:1" />
        <path
           style="fill:#ef2929;fill-rule:evenodd;stroke:none;stroke-width:1px;stroke-linecap:butt;stroke-linejoin:miter;stroke-opacity:1"
           d="m 264.77525,659.28324 c -1.06336,-2.01708 -5.18889,-4.70035 -7.86228,-6.65127 -3.33691,-2.43512 -10.97488,-5.5885 -15.27443,-3.65905 -2.59839,1.16605 -5.83237,2.45288 -6.93542,3.69542 1.35485,-0.4574 3.31817,-0.69111 4.7866,-0.56777 1.76214,0.14802 3.20699,0.0892 4.77046,0.4099 7.05453,1.44687 18.98365,6.09181 20.51507,6.77277 z"
           id="path5789"
           inkscape:connector-curvature="0"
           sodipodi:nodetypes="csscsac" />
        <path
           sodipodi:nodetypes="csscsac"
           inkscape:connector-curvature="0"
           id="path5791"
           d="m 223.35223,701.35901 c 1.06336,2.01708 5.18889,4.70035 7.86228,6.65127 3.33691,2.43512 10.97488,5.5885 15.27443,3.65905 2.59839,-1.16605 5.83237,-2.45288 6.93542,-3.69542 -1.35485,0.4574 -3.31817,0.69111 -4.7866,0.56777 -1.76214,-0.14802 -3.20699,-0.0892 -4.77046,-0.4099 -7.05453,-1.44687 -18.98365,-6.09181 -20.51507,-6.77277 z"
           style="fill:#ef2929;fill-rule:evenodd;stroke:none;stroke-width:1px;stroke-linecap:butt;stroke-linejoin:miter;stroke-opacity:1" />
        <path
           style="fill:#fc654f;fill-opacity:1;fill-rule:evenodd;stroke:none;stroke-width:1px;stroke-linecap:butt;stroke-linejoin:miter;stroke-opacity:1"
           d="m 247.17822,706.38958 c -8.08198,0.17944 -14.43826,-1.75498 -19.23942,-6.53178 -3.16874,-3.15268 -8.09053,-11.70026 -7.60184,-17.64919 1.87007,4.06233 5.58475,11.19039 9.97071,14.8589 4.92828,4.1221 10.29474,7.04274 16.87055,9.32207 z"
           id="path5793"
           inkscape:connector-curvature="0"
           sodipodi:nodetypes="cscsc" />
        <path
           sodipodi:nodetypes="cscsc"
           inkscape:connector-curvature="0"
           id="path5795"
           d="m 250.80715,655.43516 c -6.04376,-2.15175 -11.5762,-2.57109 -16.99974,-0.85431 -3.57951,1.13307 -10.50981,5.13202 -12.37351,8.90401 2.93904,-2.01903 8.4237,-5.45233 13.11724,-6.59427 5.2739,-1.2831 10.42811,-1.71869 16.25601,-1.45543 z"
           style="fill:#fc553e;fill-opacity:1;fill-rule:evenodd;stroke:none;stroke-width:1px;stroke-linecap:butt;stroke-linejoin:miter;stroke-opacity:1" />
        <path
           style="fill:#ef2929;fill-rule:evenodd;stroke:none;stroke-width:1px;stroke-linecap:butt;stroke-linejoin:miter;stroke-opacity:1"
           d="m 255.67256,704.86255 c 2.32377,-1.2283 6.11824,-5.04424 8.79248,-7.55616 3.33796,-3.1354 8.52085,-9.86517 7.67718,-12.96945 -0.50988,-1.87605 -0.97752,-4.24134 -1.95292,-4.89974 0.11294,1.00603 -0.15905,2.54307 -0.6652,3.74773 -0.60736,1.44562 -0.92248,2.59767 -1.65375,3.91518 -3.29895,5.9451 -11.10932,16.40406 -12.19794,17.76238 z"
           id="path5797"
           inkscape:connector-curvature="0"
           sodipodi:nodetypes="csscsac" />
        <circle
           r="20.204327"
           cy="679.37476"
           cx="245.43256"
           id="circle5799"
           style="color:#000000;clip-rule:nonzero;display:inline;overflow:visible;visibility:visible;opacity:1;isolation:auto;mix-blend-mode:normal;color-interpolation:sRGB;color-interpolation-filters:linearRGB;solid-color:#000000;solid-opacity:1;fill:url(#radialGradient5803);fill-opacity:1;fill-rule:nonzero;stroke:none;stroke-width:5;stroke-linecap:butt;stroke-linejoin:miter;stroke-miterlimit:4;stroke-dasharray:none;stroke-dashoffset:0;stroke-opacity:1;color-rendering:auto;image-rendering:auto;shape-rendering:auto;text-rendering:auto;enable-background:accumulate" />
      </g>
      <text
         id="text4198"
         y="520.54803"
         x="477.27716"
         style="font-style:normal;font-weight:normal;line-height:0%;font-family:sans-serif;letter-spacing:0px;word-spacing:0px;fill:#ffffff;fill-opacity:1;stroke:#000000;stroke-width:0.828672px;stroke-linecap:butt;stroke-linejoin:miter;stroke-opacity:1"
         xml:space="preserve"><tspan
           style="font-style:normal;font-variant:normal;font-weight:normal;font-stretch:normal;font-size:20.7168px;line-height:1.25;font-family:'Comic Sans MS';-inkscape-font-specification:'Comic Sans MS';fill:#ffffff;stroke:#000000;stroke-width:0.828672px;stroke-opacity:1"
           y="520.54803"
           x="477.27716"
           id="tspan4200"
           sodipodi:role="line">I</tspan></text>
    </g>
  </g>
</svg>
