<?xml version="1.0" encoding="UTF-8" standalone="no"?>
<svg
   xmlns:dc="http://purl.org/dc/elements/1.1/"
   xmlns:cc="http://creativecommons.org/ns#"
   xmlns:rdf="http://www.w3.org/1999/02/22-rdf-syntax-ns#"
   xmlns:svg="http://www.w3.org/2000/svg"
   xmlns="http://www.w3.org/2000/svg"
   xmlns:xlink="http://www.w3.org/1999/xlink"
   xmlns:sodipodi="http://sodipodi.sourceforge.net/DTD/sodipodi-0.dtd"
   xmlns:inkscape="http://www.inkscape.org/namespaces/inkscape"
   sodipodi:docname="swiftness_spell.svg"
   inkscape:version="1.0 (4035a4fb49, 2020-05-01)"
   id="svg3487"
   version="1.1"
   viewBox="0 0 210 297"
   height="297mm"
   width="210mm">
  <defs
     id="defs3481">
    <linearGradient
       inkscape:collect="always"
       xlink:href="#linearGradient5020"
       id="linearGradient5026"
       x1="-597.33118"
       y1="1407.6119"
       x2="-419.48163"
       y2="1407.6119"
       gradientUnits="userSpaceOnUse" />
    <linearGradient
       inkscape:collect="always"
       id="linearGradient5020">
      <stop
         style="stop-color:#729fcf;stop-opacity:1;"
         offset="0"
         id="stop5022" />
      <stop
         style="stop-color:#729fcf;stop-opacity:0;"
         offset="1"
         id="stop5024" />
    </linearGradient>
    <linearGradient
       y2="1407.6119"
       x2="-419.48163"
       y1="1407.6119"
       x1="-597.33118"
       gradientUnits="userSpaceOnUse"
       id="linearGradient4156"
       xlink:href="#linearGradient5020"
       inkscape:collect="always" />
    <linearGradient
       y2="1407.6119"
       x2="-419.48163"
       y1="1407.6119"
       x1="-597.33118"
       gradientUnits="userSpaceOnUse"
       id="linearGradient4158"
       xlink:href="#linearGradient5020"
       inkscape:collect="always" />
  </defs>
  <sodipodi:namedview
     inkscape:window-maximized="0"
     inkscape:window-y="0"
     inkscape:window-x="234"
     inkscape:window-height="1040"
     inkscape:window-width="1274"
     showgrid="false"
     inkscape:document-rotation="0"
     inkscape:current-layer="layer1"
     inkscape:document-units="mm"
     inkscape:cy="560"
     inkscape:cx="400"
     inkscape:zoom="0.35"
     inkscape:pageshadow="2"
     inkscape:pageopacity="0.0"
     borderopacity="1.0"
     bordercolor="#666666"
     pagecolor="#ffffff"
     id="base" />
  <metadata
     id="metadata3484">
    <rdf:RDF>
      <cc:Work
         rdf:about="">
        <dc:format>image/svg+xml</dc:format>
        <dc:type
           rdf:resource="http://purl.org/dc/dcmitype/StillImage" />
        <dc:title></dc:title>
      </cc:Work>
    </rdf:RDF>
  </metadata>
  <g
     id="layer1"
     inkscape:groupmode="layer"
     inkscape:label="Layer 1">
    <g
       transform="matrix(1.7752911,0,0,1.7752911,-865.65723,-2151.5468)"
       inkscape:export-ydpi="90"
       inkscape:export-xdpi="90"
       inkscape:export-filename="E:\Σχολή\7ο εξάμηνο\ΑΑΥ\swiftness_spell.png"
       id="g4120">
      <g
         inkscape:export-ydpi="90"
         inkscape:export-xdpi="90"
         id="g5070"
         style="stroke:#000000;stroke-width:5;stroke-miterlimit:4;stroke-dasharray:none;stroke-opacity:1"
         transform="translate(151.42857,832.88804)">
        <rect
           ry="4.6751618"
           y="501.27005"
           x="358.57141"
           height="9.684289"
           width="65.535713"
           id="rect5072"
           style="opacity:1;fill:#c17d11;fill-opacity:1;fill-rule:nonzero;stroke:#000000;stroke-width:5;stroke-linecap:round;stroke-linejoin:bevel;stroke-miterlimit:4;stroke-dasharray:none;stroke-dashoffset:0;stroke-opacity:1" />
        <path
           style="opacity:1;fill:#e9b96e;fill-rule:evenodd;stroke:#000000;stroke-width:5;stroke-linecap:butt;stroke-linejoin:round;stroke-miterlimit:4;stroke-dasharray:none;stroke-opacity:1"
           d="m 420.62504,507.07937 c 1.06793,-2.8478 10.97017,-6.5964 7.57615,-30.8096 -2.55214,-18.20711 -21.23088,-35.912 -1.76777,-55.05332 l -58.08377,0.12627 c -19.46311,19.01505 -0.78437,36.71994 1.76777,54.92705 3.39402,24.2132 -6.50822,27.9618 -7.70242,30.8096 z"
           id="path5074"
           inkscape:connector-curvature="0"
           sodipodi:nodetypes="scccscs" />
        <rect
           style="opacity:1;fill:#c17d11;fill-opacity:1;fill-rule:nonzero;stroke:#000000;stroke-width:5;stroke-linecap:round;stroke-linejoin:bevel;stroke-miterlimit:4;stroke-dasharray:none;stroke-dashoffset:0;stroke-opacity:1"
           id="rect5076"
           width="65.535713"
           height="9.684289"
           x="364.64285"
           y="418.05579"
           ry="4.6751618" />
      </g>
      <rect
         inkscape:export-ydpi="90"
         inkscape:export-xdpi="90"
         ry="4.6751618"
         y="1334.1581"
         x="509.99991"
         height="9.684289"
         width="65.535713"
         id="rect5078"
         style="opacity:1;fill:#c17d11;fill-opacity:1;fill-rule:nonzero;stroke:#000000;stroke-width:1;stroke-linecap:round;stroke-linejoin:bevel;stroke-miterlimit:4;stroke-dasharray:none;stroke-dashoffset:0;stroke-opacity:1" />
      <path
         inkscape:export-ydpi="90"
         inkscape:export-xdpi="90"
         style="opacity:1;fill:#e9b96e;fill-rule:evenodd;stroke:none;stroke-width:5;stroke-linecap:butt;stroke-linejoin:round;stroke-miterlimit:4;stroke-dasharray:none;stroke-opacity:1"
         d="m 572.05355,1339.9674 c 1.068,-2.8478 10.9702,-6.5964 7.5762,-30.8096 -2.5521,-18.2071 -21.2309,-35.912 -1.7678,-55.0533 l -58.0837,0.1262 c -19.4632,19.0151 -0.7844,36.72 1.7677,54.9271 3.394,24.2132 -6.5082,27.9618 -7.7024,30.8096 z"
         id="path5080"
         inkscape:connector-curvature="0"
         sodipodi:nodetypes="scccscs" />
      <rect
         inkscape:export-ydpi="90"
         inkscape:export-xdpi="90"
         style="opacity:1;fill:#c17d11;fill-opacity:1;fill-rule:nonzero;stroke:#000000;stroke-width:1;stroke-linecap:round;stroke-linejoin:bevel;stroke-miterlimit:4;stroke-dasharray:none;stroke-dashoffset:0;stroke-opacity:1"
         id="rect5082"
         width="65.535713"
         height="9.684289"
         x="516.07147"
         y="1250.9438"
         ry="4.6751618" />
      <text
         inkscape:export-ydpi="90"
         inkscape:export-xdpi="90"
         xml:space="preserve"
         style="font-style:normal;font-weight:normal;line-height:0%;font-family:sans-serif;letter-spacing:0px;word-spacing:0px;fill:#ffffff;fill-opacity:1;stroke:#000000;stroke-width:0.8;stroke-linecap:butt;stroke-linejoin:miter;stroke-miterlimit:4;stroke-dasharray:none;stroke-opacity:1"
         x="556.56293"
         y="1321.2932"
         id="text5141"><tspan
           sodipodi:role="line"
           id="tspan5143"
           x="556.56293"
           y="1321.2932"
           style="font-style:normal;font-variant:normal;font-weight:normal;font-stretch:normal;font-size:22.5px;line-height:1.25;font-family:'Comic Sans MS';-inkscape-font-specification:'Comic Sans MS';fill:#ffffff;stroke:#000000;stroke-width:0.8;stroke-miterlimit:4;stroke-dasharray:none;stroke-opacity:1">I</tspan></text>
      <g
         inkscape:export-ydpi="90"
         inkscape:export-xdpi="90"
         id="g5006"
         style="fill:#e9b96e"
         transform="translate(188.87805,171.47339)">
        <g
           id="g5014"
           style="fill:url(#linearGradient5026);fill-opacity:1">
          <g
             id="g5050"
             style="fill:url(#linearGradient4158)"
             transform="matrix(0.3774761,0,0,0.3774761,292.46685,666.52376)">
            <g
               id="g5060"
               style="fill:url(#linearGradient4156)"
               transform="translate(-100.29017,50.145087)">
              <rect
                 style="opacity:1;fill:#c17d11;fill-opacity:1;fill-rule:nonzero;stroke:#000000;stroke-width:1;stroke-linecap:round;stroke-linejoin:round;stroke-miterlimit:4;stroke-dasharray:none;stroke-dashoffset:0;stroke-opacity:1"
                 id="rect5048"
                 width="79.412025"
                 height="46.177917"
                 x="218.45329"
                 y="1162.2639"
                 ry="4.5794663" />
              <g
                 id="g5028"
                 style="fill:#e6ffff;fill-opacity:1;stroke-width:2.4432;stroke-miterlimit:4;stroke-dasharray:none"
                 transform="matrix(0.40929924,0,0,0.40929924,506.23233,581.18756)">
                <path
                   style="fill:#e6ffff;fill-opacity:1;fill-rule:evenodd;stroke:none;stroke-width:2.4432;stroke-linecap:butt;stroke-linejoin:miter;stroke-miterlimit:4;stroke-dasharray:none;stroke-opacity:1"
                   d="m -554.28571,1444.8622 113.57143,-62.1429 8.57143,14.2858 -16.78572,45.7142 -55.35714,22.5 -31.07143,1.7858 z"
                   id="path5011"
                   inkscape:connector-curvature="0" />
                <path
                   sodipodi:nodetypes="csccssssssssssc"
                   inkscape:connector-curvature="0"
                   id="path5003"
                   d="m -431.72443,1381.4536 c 0,0 11.25904,-17.0284 11.72443,-29.4486 0.45643,-12.1809 -7.85714,-35.7143 -7.85714,-35.7143 -18.37584,30.1488 -29.27152,37.6638 -54.28571,48.9286 -18.5205,8.8009 -40.74486,6.5214 -60,13.5715 -12.60006,4.6134 -26.37927,8.9328 -35.71429,18.5714 -9.18688,9.4857 -14.456,22.7854 -17.14286,35.7143 -2.56942,12.3639 -2.7259,25.932 1.42858,37.8571 2.91408,8.3646 8.36156,16.4894 15.71428,21.4286 7.3341,4.9267 16.91115,7.1809 25.71429,6.4286 8.81591,-0.7534 17.72415,-4.7785 24.28571,-10.7143 6.08838,-5.5078 10.81718,-13.3264 12.14286,-21.4286 1.21393,-7.4193 0.67211,-16.4913 -4.28572,-22.1428 -2.97918,-3.396 -8.33972,-4.3195 -12.85714,-4.2858 -5.04501,0.038 -14.28571,5 -14.28571,5"
                   style="fill:#e6ffff;fill-opacity:1;fill-rule:evenodd;stroke:#000000;stroke-width:2.4432;stroke-linecap:round;stroke-linejoin:round;stroke-miterlimit:4;stroke-dasharray:none;stroke-opacity:1" />
                <path
                   sodipodi:nodetypes="csscsc"
                   inkscape:connector-curvature="0"
                   id="path5001"
                   d="m -443.23966,1431.612 c 0,0 12.98865,-15.542 15.71428,-25 1.51644,-5.2621 1.38767,-11.1311 0,-16.4286 -1.10758,-4.2282 -6.42857,-11.4286 -6.42857,-11.4286 0,0 -9.85615,11.6214 -15.71428,16.4286 -7.19945,5.9078 -23.57143,15 -23.57143,15"
                   style="fill:#e6ffff;fill-opacity:1;fill-rule:evenodd;stroke:#000000;stroke-width:2.4432;stroke-linecap:round;stroke-linejoin:round;stroke-miterlimit:4;stroke-dasharray:none;stroke-opacity:1" />
                <path
                   sodipodi:nodetypes="ccssscsc"
                   inkscape:connector-curvature="0"
                   id="path4999"
                   d="M -515.71428,1465.9336 -485,1468.0765 c 0,0 24.57014,-1.2937 34.28572,-7.8572 5.52772,-3.7343 10.87741,-9.7804 11.42857,-16.4285 0.2773,-3.3448 -2.36671,-8.8732 -4.13925,-12.1533 -0.87109,-1.6119 -1.53171,-2.6809 -1.53171,-2.6809 0,0 -10.7185,8.9288 -16.4719,11.2627 -6.53386,2.6505 -20.71428,4.2858 -20.71428,4.2858"
                   style="fill:#e6ffff;fill-opacity:1;fill-rule:evenodd;stroke:#000000;stroke-width:2.4432;stroke-linecap:butt;stroke-linejoin:miter;stroke-miterlimit:4;stroke-dasharray:none;stroke-opacity:1" />
              </g>
            </g>
          </g>
        </g>
      </g>
    </g>
  </g>
</svg>
